
<svg width="167" height="40" viewBox="0 0 167 40" fill="none" xmlns="http://www.w3.org/2000/svg">
<path d="M0.30249 20.1512V20.0437C0.30249 9.1932 8.42686 0.30249 19.9899 0.30249C27.0252 0.30249 31.2773 2.75627 34.9311 6.2453L30.6218 11.2067C27.5664 8.3697 24.2958 6.4638 19.9327 6.4638C12.679 6.4638 7.33442 12.4638 7.33442 19.9327V20.0403C7.33442 27.5126 12.6252 33.563 19.9327 33.563C24.6218 33.563 27.6201 31.7075 30.8941 28.6554L35.2033 33.0185C31.2235 37.163 26.8605 39.7815 19.7176 39.7815C8.59157 39.7815 0.30249 31.1092 0.30249 20.1512Z" fill="#005091"/>
<path d="M123.872 0.958008H130.581V16.8269H148.793V0.958008H155.502V39.1294H148.793V23.042H130.581V39.1294H123.872V0.958008Z" fill="#005091"/>
<path d="M76.2655 20.1512V20.0437C76.2655 9.3008 84.5546 0.30249 96.2789 0.30249C108.003 0.30249 116.181 9.1899 116.181 19.9327V20.0403C116.181 30.7832 107.892 39.7815 96.168 39.7815C84.4437 39.7815 76.2655 30.8941 76.2655 20.1512ZM109.15 20.1512V20.0437C109.15 12.6285 103.751 6.4638 96.1714 6.4638C88.5915 6.4638 83.3008 12.5176 83.3008 19.9327V20.0403C83.3008 27.4554 88.6991 33.563 96.2789 33.563C103.859 33.563 109.15 27.563 109.15 20.1479V20.1512Z" fill="#005091"/>
<path d="M67.6235 22.3428L74.958 39.126H67.8689L61.6034 24.3764C63.5362 23.5428 65.5496 22.8638 67.6235 22.3395V22.3428ZM119.654 39.126H112.723C105.382 27.3411 92.3093 19.4958 77.4017 19.4958C73.795 19.4958 70.2958 19.9596 66.958 20.8235V20.8302C64.8975 21.3647 62.8941 22.0538 60.9647 22.884C53.1362 26.2521 46.5479 31.9596 42.0807 39.126H35.1462L51.9429 0.95459H58.158L64.5177 15.2403C68.6151 14.0907 72.9345 13.4756 77.4017 13.4756C95.7748 13.4756 111.714 23.8857 119.654 39.126ZM58.6084 17.3311L54.9412 8.6958L48.8807 22.9613C51.8689 20.7193 55.1328 18.8235 58.6084 17.3277V17.3311Z" fill="url(#paint0_linear_106_11)"/>
<path d="M163.351 36.1009V39.1295H162.803V35.2236H163.439L164.847 37.4589L166.249 35.2236H166.81V39.1295H166.262V36.1009L164.813 38.3598L163.358 36.1009H163.351Z" fill="#005091"/>
<path d="M161.516 36.1311C161.425 36.0034 161.291 35.8925 161.116 35.8017C160.797 35.6269 160.279 35.6135 159.997 35.8151C159.741 35.9798 159.718 36.3496 159.953 36.5378C160.064 36.6286 160.195 36.7025 160.36 36.7496C160.689 36.8504 161.102 36.9916 161.418 37.1462C161.583 37.2269 161.718 37.3412 161.825 37.4992C162.118 37.9193 162.01 38.5815 161.6 38.8941C160.945 39.4387 159.513 39.2639 159.086 38.5479L159.482 38.1782C159.815 38.6824 160.682 38.8639 161.173 38.5311C161.462 38.3294 161.472 37.8689 161.166 37.6672C161.015 37.5563 160.83 37.4723 160.618 37.4051C160.205 37.2639 159.734 37.163 159.432 36.8202C159.079 36.4404 159.146 35.7479 159.583 35.4387C160.003 35.0891 160.854 35.0588 161.365 35.3177C161.603 35.432 161.785 35.5798 161.913 35.7546L161.513 36.1311H161.516Z" fill="#005091"/>
<defs>
<linearGradient id="paint0_linear_106_11" x1="35.1496" y1="20.0437" x2="119.657" y2="20.0437" gradientUnits="userSpaceOnUse">
<stop offset="0.16" stop-color="#005091"/>
<stop offset="0.36" stop-color="#0089C6"/>
<stop offset="0.48" stop-color="#00A6E0"/>
<stop offset="0.55" stop-color="#009FDA"/>
<stop offset="0.64" stop-color="#008DC9"/>
<stop offset="0.74" stop-color="#0071AF"/>
<stop offset="0.84" stop-color="#005091"/>
</linearGradient>
</defs>
</svg>
